<svg xmlns="http://www.w3.org/2000/svg" xmlns:xlink="http://www.w3.org/1999/xlink" viewBox="0 0 700 600"><defs><style>.cls-1{fill:url(#linear-gradient);}.cls-2{isolation:isolate;}.cls-10,.cls-11,.cls-16,.cls-3,.cls-40,.cls-41,.cls-9{fill:none;}.cls-26,.cls-27,.cls-28,.cls-29,.cls-3{stroke:#0065ff;stroke-width:4.47px;}.cls-26,.cls-27,.cls-28,.cls-29,.cls-3,.cls-41{stroke-linecap:round;}.cls-16,.cls-26,.cls-27,.cls-28,.cls-29,.cls-3,.cls-40,.cls-41{stroke-miterlimit:10;}.cls-4{clip-path:url(#clip-path);}.cls-22,.cls-23,.cls-5{fill:#b2d4ff;}.cls-16,.cls-22,.cls-23,.cls-6{mix-blend-mode:multiply;}.cls-6{fill:url(#linear-gradient-3);}.cls-7{fill:url(#linear-gradient-4);}.cls-8{fill:url(#linear-gradient-5);}.cls-10,.cls-11,.cls-9{stroke:#fff;stroke-linejoin:round;stroke-width:3.12px;}.cls-10{stroke-dasharray:10.58 10.58;}.cls-11{stroke-dasharray:10.26 10.26;}.cls-12{fill:url(#linear-gradient-6);}.cls-13{fill:url(#linear-gradient-7);}.cls-14{fill:url(#linear-gradient-8);}.cls-15{fill:#4c9aff;}.cls-16{stroke:#b2d4ff;stroke-width:4.16px;}.cls-17,.cls-27{fill:#ffab00;}.cls-18{fill:#36b37e;}.cls-19{fill:#dfe1e5;}.cls-20{fill:#0065ff;}.cls-21,.cls-29{fill:#57d9a3;}.cls-23{opacity:0.54;}.cls-24{fill:#ffc400;}.cls-25{fill:url(#linear-gradient-9);}.cls-26{fill:#ffe380;}.cls-28{fill:#fff;}.cls-30{fill:url(#linear-gradient-10);}.cls-31{fill:url(#G400-200);}.cls-32{fill:url(#linear-gradient-11);}.cls-33{fill:#a17f68;}.cls-34{fill:url(#linear-gradient-12);}.cls-35{fill:#172b4d;}.cls-36{fill:url(#linear-gradient-13);}.cls-37{fill:#091e42;}.cls-38{fill:#0049b0;}.cls-39{fill:#2684ff;}.cls-40,.cls-41{stroke:#dfe1e5;}.cls-40{stroke-width:0.59px;}.cls-41{stroke-width:0.59px;}.cls-42{fill:url(#linear-gradient-14);}.cls-43{fill:url(#linear-gradient-15);}.cls-44{fill:url(#linear-gradient-16);}</style><linearGradient id="linear-gradient" x1="-93.68" y1="540.49" x2="649.04" y2="201.84" gradientUnits="userSpaceOnUse"><stop offset="0" stop-color="#b2d4ff"/><stop offset="0.65" stop-color="#deebff"/><stop offset="0.97" stop-color="#deebff" stop-opacity="0.1"/></linearGradient><clipPath id="clip-path"><path class="cls-1" d="M215.59,194.35H38.86a4.15,4.15,0,0,1-4.15-4.16V161.14A4.15,4.15,0,0,1,38.86,157H215.59a4.16,4.16,0,0,1,4.16,4.16v29.05A4.16,4.16,0,0,1,215.59,194.35Zm198.31,0H237.17a4.16,4.16,0,0,1-4.16-4.16V161.14a4.16,4.16,0,0,1,4.16-4.16H413.9a4.16,4.16,0,0,1,4.16,4.16v29.05A4.16,4.16,0,0,1,413.9,194.35Zm198.31,0H435.48a4.16,4.16,0,0,1-4.16-4.16V161.14a4.16,4.16,0,0,1,4.16-4.16H612.21a4.16,4.16,0,0,1,4.16,4.16v29.05A4.16,4.16,0,0,1,612.21,194.35ZM413.9,541.71H237.17a4.16,4.16,0,0,1-4.16-4.16V207.93a4.16,4.16,0,0,1,4.16-4.16H413.9a4.16,4.16,0,0,1,4.16,4.16V537.55A4.16,4.16,0,0,1,413.9,541.71Zm202.47-4.16V207.93a4.16,4.16,0,0,0-4.16-4.16H435.48a4.16,4.16,0,0,0-4.16,4.16V537.55a4.16,4.16,0,0,0,4.16,4.16H612.21A4.16,4.16,0,0,0,616.37,537.55Zm-396.62,0V207.93a4.16,4.16,0,0,0-4.16-4.16H38.86a4.15,4.15,0,0,0-4.15,4.16V537.55a4.15,4.15,0,0,0,4.15,4.16H215.59A4.16,4.16,0,0,0,219.75,537.55Z"/></clipPath><linearGradient id="linear-gradient-3" x1="338.1" y1="494.07" x2="450.76" y2="381.41" gradientUnits="userSpaceOnUse"><stop offset="0" stop-color="#deebff"/><stop offset="0.35" stop-color="#e2edff"/><stop offset="0.69" stop-color="#eef4ff"/><stop offset="1" stop-color="#fff"/></linearGradient><linearGradient id="linear-gradient-4" x1="70.9" y1="312.08" x2="183.56" y2="199.42" gradientUnits="userSpaceOnUse"><stop offset="0" stop-color="#deebff"/><stop offset="0.74" stop-color="#fff"/></linearGradient><linearGradient id="linear-gradient-5" x1="70.9" y1="394.34" x2="183.56" y2="281.69" xlink:href="#linear-gradient-4"/><linearGradient id="linear-gradient-6" x1="269.21" y1="312.08" x2="381.86" y2="199.42" xlink:href="#linear-gradient-4"/><linearGradient id="linear-gradient-7" x1="269.21" y1="394.34" x2="381.86" y2="281.69" xlink:href="#linear-gradient-4"/><linearGradient id="linear-gradient-8" x1="348.5" y1="483.67" x2="461.16" y2="371.02" xlink:href="#linear-gradient-4"/><linearGradient id="linear-gradient-9" x1="4357.74" y1="-1311.02" x2="4357.74" y2="-1436.98" gradientTransform="translate(-4307.23 1797.53) rotate(1.22)" gradientUnits="userSpaceOnUse"><stop offset="0.02" stop-color="#064"/><stop offset="0.15" stop-color="#00704a"/><stop offset="0.48" stop-color="#00875a"/><stop offset="1" stop-color="#57d9a3"/></linearGradient><linearGradient id="linear-gradient-10" x1="4319.77" y1="-2883.61" x2="4319.77" y2="-3009.56" gradientTransform="translate(-5085.93 1141.31) rotate(27.51)" gradientUnits="userSpaceOnUse"><stop offset="0.22" stop-color="#00875a"/><stop offset="1" stop-color="#57d9a3"/></linearGradient><linearGradient id="G400-200" x1="4157.84" y1="-3390.51" x2="4200.17" y2="-3390.51" gradientTransform="translate(-5251.46 878.47) rotate(35.57)" gradientUnits="userSpaceOnUse"><stop offset="0" stop-color="#2db07c"/><stop offset="1" stop-color="#64e6a4"/></linearGradient><linearGradient id="linear-gradient-11" x1="131.46" y1="600" x2="131.46" y2="505.02" gradientUnits="userSpaceOnUse"><stop offset="0" stop-color="#abf5d1"/><stop offset="0.02" stop-color="#a8f4cf"/><stop offset="0.33" stop-color="#7ce5b7"/><stop offset="0.57" stop-color="#61dca9"/><stop offset="0.71" stop-color="#57d9a3"/></linearGradient><linearGradient id="linear-gradient-12" x1="208.1" y1="437.43" x2="265.4" y2="437.43" gradientUnits="userSpaceOnUse"><stop offset="0" stop-color="#344563"/><stop offset="0.52" stop-color="#091e42"/></linearGradient><linearGradient id="linear-gradient-13" x1="-6746.9" y1="440.47" x2="-6746.9" y2="428.56" gradientTransform="matrix(-1, 0, 0, 1, -6545.8, 0)" gradientUnits="userSpaceOnUse"><stop offset="0" stop-color="#a17f68"/><stop offset="1" stop-color="#916d5a"/></linearGradient><linearGradient id="linear-gradient-14" x1="-6769.75" y1="466.9" x2="-6746.49" y2="443.65" gradientTransform="matrix(-1, 0, 0, 1, -6545.8, 0)" gradientUnits="userSpaceOnUse"><stop offset="0.48" stop-color="#172b4d"/><stop offset="1" stop-color="#344563"/></linearGradient><linearGradient id="linear-gradient-15" x1="-6733.94" y1="473.63" x2="-6733.94" y2="436.12" xlink:href="#linear-gradient-14"/><linearGradient id="linear-gradient-16" x1="1363.89" y1="-1288.28" x2="1408.25" y2="-1288.28" gradientTransform="translate(-1597.79 1053.18) rotate(24.66)" gradientUnits="userSpaceOnUse"><stop offset="0" stop-color="#344563"/><stop offset="0.52" stop-color="#172b4d"/></linearGradient></defs><title>cobra id pages_jira_left</title><g class="cls-2"><g id="Layer_2" data-name="Layer 2"><polyline class="cls-3" points="220.1 586.44 332.54 516.75 421.01 559.79"/><path class="cls-1" d="M215.59,194.35H38.86a4.15,4.15,0,0,1-4.15-4.16V161.14A4.15,4.15,0,0,1,38.86,157H215.59a4.16,4.16,0,0,1,4.16,4.16v29.05A4.16,4.16,0,0,1,215.59,194.35Zm198.31,0H237.17a4.16,4.16,0,0,1-4.16-4.16V161.14a4.16,4.16,0,0,1,4.16-4.16H413.9a4.16,4.16,0,0,1,4.16,4.16v29.05A4.16,4.16,0,0,1,413.9,194.35Zm198.31,0H435.48a4.16,4.16,0,0,1-4.16-4.16V161.14a4.16,4.16,0,0,1,4.16-4.16H612.21a4.16,4.16,0,0,1,4.16,4.16v29.05A4.16,4.16,0,0,1,612.21,194.35ZM413.9,541.71H237.17a4.16,4.16,0,0,1-4.16-4.16V207.93a4.16,4.16,0,0,1,4.16-4.16H413.9a4.16,4.16,0,0,1,4.16,4.16V537.55A4.16,4.16,0,0,1,413.9,541.71Zm202.47-4.16V207.93a4.16,4.16,0,0,0-4.16-4.16H435.48a4.16,4.16,0,0,0-4.16,4.16V537.55a4.16,4.16,0,0,0,4.16,4.16H612.21A4.16,4.16,0,0,0,616.37,537.55Zm-396.62,0V207.93a4.16,4.16,0,0,0-4.16-4.16H38.86a4.15,4.15,0,0,0-4.15,4.16V537.55a4.15,4.15,0,0,0,4.15,4.16H215.59A4.16,4.16,0,0,0,219.75,537.55Z"/><g class="cls-4"><rect class="cls-5" x="246.25" y="385.09" width="158.58" height="70.38" rx="3.12"/><rect class="cls-6" x="315.14" y="402.55" width="158.58" height="70.38" rx="3.12"/></g><rect class="cls-7" x="47.94" y="220.56" width="158.58" height="70.38" rx="3.12"/><rect class="cls-8" x="47.94" y="302.82" width="158.58" height="70.38" rx="3.12"/><polyline class="cls-9" points="446.92 531.31 441.72 531.31 441.72 526.11"/><line class="cls-10" x1="441.72" y1="515.53" x2="441.72" y2="224.65"/><polyline class="cls-9" points="441.72 219.37 441.72 214.17 446.92 214.17"/><line class="cls-11" x1="457.18" y1="214.17" x2="595.64" y2="214.17"/><polyline class="cls-9" points="600.77 214.17 605.97 214.17 605.97 219.37"/><line class="cls-10" x1="605.97" y1="229.94" x2="605.97" y2="520.82"/><polyline class="cls-9" points="605.97 526.11 605.97 531.31 600.77 531.31"/><line class="cls-11" x1="590.52" y1="531.31" x2="452.05" y2="531.31"/><rect class="cls-12" x="246.25" y="220.56" width="158.58" height="70.38" rx="3.12"/><rect class="cls-13" x="246.25" y="302.82" width="158.58" height="70.38" rx="3.12"/><rect class="cls-14" x="325.54" y="392.15" width="158.58" height="70.38" rx="3.12"/><rect class="cls-15" x="37.3" y="110.88" width="164.71" height="19.4"/><line class="cls-16" x1="259.58" y1="234.64" x2="391.49" y2="234.64"/><circle class="cls-17" cx="384.57" cy="354.86" r="9.56"/><circle class="cls-18" cx="384.57" cy="272.45" r="9.56"/><circle class="cls-19" cx="459.14" cy="443.92" r="9.56"/><circle class="cls-20" cx="182.58" cy="272.45" r="9.56"/><circle class="cls-21" cx="182.58" cy="354.86" r="9.56"/><line class="cls-16" x1="259.58" y1="251.52" x2="349.9" y2="251.52"/><line class="cls-16" x1="259.58" y1="316.61" x2="391.49" y2="316.61"/><line class="cls-16" x1="259.58" y1="333.5" x2="349.9" y2="333.5"/><line class="cls-16" x1="60.24" y1="234.64" x2="192.14" y2="234.64"/><line class="cls-16" x1="60.24" y1="251.52" x2="150.55" y2="251.52"/><line class="cls-16" x1="60.24" y1="316.61" x2="192.14" y2="316.61"/><line class="cls-16" x1="60.24" y1="333.5" x2="150.55" y2="333.5"/><line class="cls-16" x1="338.88" y1="406.48" x2="470.78" y2="406.48"/><line class="cls-16" x1="338.88" y1="423.37" x2="429.19" y2="423.37"/><rect class="cls-22" x="49.27" y="171.3" width="76.92" height="8.23"/><rect class="cls-22" x="246.25" y="171.3" width="76.92" height="8.23"/><rect class="cls-23" x="443.22" y="171.3" width="76.92" height="8.23"/><rect class="cls-17" x="60.24" y="262.89" width="19.12" height="19.12" rx="3.12"/><rect class="cls-21" x="60.24" y="345.29" width="19.12" height="19.12" rx="3.12"/><rect class="cls-24" x="259.58" y="345.29" width="19.12" height="19.12" rx="3.12"/><rect class="cls-21" x="338.88" y="434.36" width="19.12" height="19.12" rx="3.12"/><rect class="cls-21" x="259.58" y="262.89" width="19.12" height="19.12" rx="3.12"/><path class="cls-18" d="M71.74,528.47a8.28,8.28,0,0,0-.25-2.93,9.15,9.15,0,0,0-4.28-5.27,16.41,16.41,0,0,0,2.21-.15,16.85,16.85,0,0,0,10.28-6,19,19,0,0,0-9.48-5.83l.62-.31a16.83,16.83,0,0,0,7.5-9.23,19.2,19.2,0,0,0-10-2.17c.41-.35.8-.72,1.18-1.11a16.87,16.87,0,0,0,4.35-11.06,18.87,18.87,0,0,0-11.28,1.42,17.78,17.78,0,0,0,1.71-7.2,19.12,19.12,0,0,0-10.66,1.15,17.11,17.11,0,0,0,1.79-10.68,18.92,18.92,0,0,0-11.15,3.57l.07-.19a16.84,16.84,0,0,0-.66-11.87,18.84,18.84,0,0,0-10.35,6.88,16.3,16.3,0,0,0-1.09,1.66,15.87,15.87,0,0,0-.25-2.06,16.89,16.89,0,0,0-6.41-10,19.52,19.52,0,0,0-3.73,5,17.1,17.1,0,0,0-6.19-9,19.19,19.19,0,0,0-5.09,8.45,17.92,17.92,0,0,0-6.13-4.34,19.26,19.26,0,0,0-2.7,7.42A16.43,16.43,0,0,0,0,463.7l.1,49.86s20.16,23,36,19a30.42,30.42,0,0,0,15.76-9.67c1,6.94,6.53,11.49,11.72,11.12C68.51,533.67,71.4,529,71.74,528.47Z"/><path class="cls-25" d="M99,523.12h0a14,14,0,0,0-1.36,9.06l0,.2a13.86,13.86,0,0,1-3.17,11.71h0A13.93,13.93,0,0,0,91.05,553v.16a13.85,13.85,0,0,1-5.29,10.65l-.88.69a14,14,0,0,0-4.55,6.42l-2.93,8.56-2.56-8.68a13.88,13.88,0,0,0-4.28-6.61l-.84-.72a13.9,13.9,0,0,1-4.84-10.87v-.16a13.93,13.93,0,0,0-3-9h0a13.86,13.86,0,0,1-2.67-11.84l0-.19a13.83,13.83,0,0,0-1-9.11h0a13.83,13.83,0,0,1,.26-12.41h0a13.82,13.82,0,0,0,1.36-9.06l0-.19A13.91,13.91,0,0,1,63,488.86h0A13.86,13.86,0,0,0,66.42,480v-.16a13.89,13.89,0,0,1,5.3-10.65l.87-.69a13.83,13.83,0,0,0,4.56-6.42l2.92-8.56,2.56,8.68a13.91,13.91,0,0,0,4.28,6.61l.84.72a13.88,13.88,0,0,1,4.84,10.88v.15a13.87,13.87,0,0,0,3,9h0a13.84,13.84,0,0,1,2.68,11.83l0,.19a14,14,0,0,0,1,9.11h0A13.89,13.89,0,0,1,99,523.12Z"/><polyline class="cls-3" points="429.27 565.16 518.45 458.04 590.21 521.38 656.68 429.17"/><circle class="cls-26" cx="429.27" cy="565.16" r="11.09"/><circle class="cls-27" cx="518.94" cy="457.01" r="11.09"/><circle class="cls-28" cx="590.95" cy="524.21" r="11.09"/><circle class="cls-29" cx="656.68" cy="428.88" r="11.09"/><path class="cls-30" d="M121.68,538.5h0a13.82,13.82,0,0,0-5.23,7.52l-.06.19a13.88,13.88,0,0,1-8,9.09h0a13.89,13.89,0,0,0-7,6.44l-.08.14a13.88,13.88,0,0,1-9.47,7.21l-1.08.22a13.91,13.91,0,0,0-6.93,3.74l-6.42,6.38,1.55-8.92a13.84,13.84,0,0,0-.9-7.81l-.44-1a13.88,13.88,0,0,1,.48-11.89l.07-.14a13.84,13.84,0,0,0,1.27-9.41h0a13.89,13.89,0,0,1,2.84-11.8l.13-.15a13.87,13.87,0,0,0,3.16-8.6h0a13.89,13.89,0,0,1,5.74-11h0a13.93,13.93,0,0,0,5.23-7.53l0-.19a13.88,13.88,0,0,1,8-9.09h0a13.93,13.93,0,0,0,7-6.44l.07-.14a13.86,13.86,0,0,1,9.47-7.2l1.09-.23a13.87,13.87,0,0,0,6.93-3.74l6.41-6.38L134,476.65a13.88,13.88,0,0,0,.91,7.82l.43,1a13.88,13.88,0,0,1-.47,11.89l-.07.14a13.86,13.86,0,0,0-1.27,9.42h0a13.87,13.87,0,0,1-2.85,11.79l-.12.15a13.88,13.88,0,0,0-3.17,8.6h0A13.86,13.86,0,0,1,121.68,538.5Z"/><path class="cls-31" d="M125,567.89h0a11.25,11.25,0,0,0-6.67,3.31l-.11.11a11.26,11.26,0,0,1-9.28,3.32h0a11.28,11.28,0,0,0-7.49,1.84l-.11.07A11.24,11.24,0,0,1,91.73,578l-.86-.26a11.21,11.21,0,0,0-6.39-.06l-7.06,2L82,573.93A11.29,11.29,0,0,0,84.43,568l.09-.89a11.27,11.27,0,0,1,5-8.28l.1-.07a11.22,11.22,0,0,0,4.59-6.2h0a11.31,11.31,0,0,1,6.65-7.28l.15-.06a11.29,11.29,0,0,0,5.62-4.87h0a11.27,11.27,0,0,1,8.4-5.58h0a11.25,11.25,0,0,0,6.67-3.31l.11-.11a11.26,11.26,0,0,1,9.28-3.32h0a11.3,11.3,0,0,0,7.49-1.84l.11-.07a11.24,11.24,0,0,1,9.56-1.42l.86.26a11.21,11.21,0,0,0,6.39.06l7.06-2L158,528.73a11.29,11.29,0,0,0-2.42,5.92l-.09.89a11.27,11.27,0,0,1-5,8.28l-.1.07a11.28,11.28,0,0,0-4.6,6.2h0a11.27,11.27,0,0,1-6.64,7.28l-.15.06a11.29,11.29,0,0,0-5.62,4.87h0A11.27,11.27,0,0,1,125,567.89Z"/><path class="cls-32" d="M262.88,600H0V505a101.18,101.18,0,0,1,38,6.56c30.2,11.65,31.12,30.57,57.29,38.85,25.06,7.94,32.21-6.73,57.8,3.6,18.9,7.63,18.9,17.21,37.62,21.56,17.65,4.11,24.94-2.72,40.93,1.7C246.85,581.5,257,592.24,262.88,600Z"/><path class="cls-33" d="M266.37,417.84a20,20,0,0,1,8-3.2c.53-.08,2.62-.4,2.77.07,0,.14-.11.33-.24.47a3.49,3.49,0,0,1-1.95.95,18.5,18.5,0,0,0-2.77.87,1.29,1.29,0,0,1,1.17.91,1.27,1.27,0,0,1-.41,1.33,1.87,1.87,0,0,1,.72,1.24c.06,1-1.32,1.77-2.31,2.54a6.51,6.51,0,0,1-3.21,1.32l-2.86.33-.74-5.53C265,418.74,265.65,418.32,266.37,417.84Z"/><path class="cls-34" d="M208.1,436.25c5.14-1.34,48.35-13.39,56.38-17.32a1.49,1.49,0,0,0,0,.21c.25,1.84.5,3.69.74,5.53,0,0,.16,2.51.16,2.52a153.27,153.27,0,0,1-19,9.25,145.72,145.72,0,0,0-16,7.49c-2.9,1.58-7.29,4.13-9.78,9.17a16.82,16.82,0,0,0-1.11,2.83Z"/><polygon class="cls-35" points="178.23 511.25 223.46 511.25 217.23 473.63 185.71 473.63 178.23 511.25"/><path class="cls-36" d="M194.12,436.67a8.8,8.8,0,0,0,14,.65,5.84,5.84,0,0,1-1.22-1.2,6.76,6.76,0,0,1-.63-1.09,10.67,10.67,0,0,1,0-5.76l-11.15-.71c.13,1,.29,2.45.47,4.23a4.32,4.32,0,0,1-.26,2.61A3.45,3.45,0,0,1,194.12,436.67Z"/><path class="cls-37" d="M199.35,600c-.08-.24-.15-.56-.23-.88a2.71,2.71,0,0,0-1.91-2,23,23,0,0,1-6.81-2.48,46.37,46.37,0,0,1-6.41-4.8l-7,.84a44,44,0,0,0-.69,4.65c-.13,1.49-.18,3.39-.16,4.66h3.76l1.18-1.18a16.57,16.57,0,0,1,1.57,1.18Z"/><path class="cls-37" d="M226,600l-.3-1.2a1.69,1.69,0,0,0-1.35-1.27,15.45,15.45,0,0,1-5.16-1.75,36.73,36.73,0,0,1-7.51-6.29l-6.77,1a22.53,22.53,0,0,0-1.58,9.49H208s.43-.44.86-.91l1.08.91Z"/><path class="cls-38" d="M213.25,471.27c.34,2.14.83,5.39,1.31,9.34a268,268,0,0,1,1.63,44.29c-.45,13.26-.55,36.7,1,67.3-1,0-2,.06-3,.06A73.46,73.46,0,0,1,200.42,591c-.23-22.62-.47-48.59-.71-71.21q-4.59,36.11-9.17,72.21a29.45,29.45,0,0,1-17.26.06q1.26-19.32,3.51-39.88,1.31-11.67,2.83-22.87c.2-5.32.5-9.67.75-12.63a206.75,206.75,0,0,1,6.08-38.07c.89-3.34,1.71-6,2.22-7.65C196.79,471.11,205.14,471.09,213.25,471.27Z"/><path class="cls-39" d="M195.6,434.18a7.52,7.52,0,0,0,5.39,2.36,7.43,7.43,0,0,0,5.06-2.1c.28.56.56,1.12.83,1.68a7,7,0,0,1-12.45,0Z"/><path class="cls-39" d="M211.33,437.13a13.82,13.82,0,0,0-4.45-1,6.92,6.92,0,0,1-12.36,0c-.9.11-3.27,1.15-5.12,1.4a10.36,10.36,0,0,0-2.28.53,9.23,9.23,0,0,0-4.35,3.07c-2.06,2.61-1.71,7.86,1.58,12.47,1.6,5,4.45,7.41,6.05,12.36l-2,5.19q6.93.11,14,.13h10.84c.86-5.6,1.06-6.35,2.29-8.32a27.38,27.38,0,0,0,2.71-6.68,8.57,8.57,0,0,0,.22-1.83c.07-4-1.85-4.35-2.24-10.18-.11-1.75,0-3.17-1-4.58A8.2,8.2,0,0,0,211.33,437.13Z"/><path class="cls-37" d="M224.74,475.09h14.41a2.79,2.79,0,0,0,2.63-1.85l6.94-19.34a1.4,1.4,0,0,0-1.31-1.87H233a2.81,2.81,0,0,0-2.64,1.85l-6.94,19.34A1.4,1.4,0,0,0,224.74,475.09Z"/><path class="cls-35" d="M183,473.63c-.54,1.08-1.06,2.18-1.56,3.32a73.74,73.74,0,0,0-5.77,34.31H192l2.44-37.63Z"/><path class="cls-33" d="M196.42,431.49c-1-.26-1.76-.54-2.29-.73a9.48,9.48,0,0,1-4.15-4.42,9.22,9.22,0,0,1-.77-3.6l0-1.1a10.22,10.22,0,0,1,4.48-8.75l.21-.14a10.25,10.25,0,0,1,2.71-1.3,10.59,10.59,0,0,1,3-.45c1.86,0,5.41.73,7.25,3.36a36.83,36.83,0,0,1,2.33,5.52,15.81,15.81,0,0,0,.75,1.68,14.55,14.55,0,0,0,1.26,2.05l-1.35,1a13.33,13.33,0,0,1,0,4.48,3.89,3.89,0,0,1-.67,2c-.48.6-1.28,1-4.3,1.12A26.14,26.14,0,0,1,196.42,431.49Z"/><path class="cls-37" d="M209.39,415.75c-1.64.64-3.41,1.26-5.29,1.85-2.5.78-4.88,1.38-7.1,1.86q2.08,9.38,4.15,18.76c-1.64-.55-8.78-3.16-12-10.38-.77-1.7-3.19-7.07-.73-12.2a11.69,11.69,0,0,1,4-4.59c1-.7,6.05-4,11.26-1.64A11.19,11.19,0,0,1,209.39,415.75Z"/><ellipse class="cls-40" cx="209.89" cy="418.77" rx="1.38" ry="1.91" transform="translate(-90.1 59.01) rotate(-13.2)"/><ellipse class="cls-40" cx="205.14" cy="419.89" rx="1.38" ry="1.91" transform="translate(-90.48 57.95) rotate(-13.2)"/><line class="cls-40" x1="208.56" y1="419.09" x2="206.48" y2="419.57"/><line class="cls-41" x1="203.8" y1="420.2" x2="196.26" y2="421.97"/><path class="cls-42" d="M219.8,444.55a14.92,14.92,0,0,1,1.13,4.08,15.12,15.12,0,0,1,0,3.55,42.9,42.9,0,0,0-3.73,21.45c-.56.12-1.15.23-1.76.32-1.15.17-2.23.26-3.24.31a53.11,53.11,0,0,1-1.36-8.75c-.44-6,.34-9.14.4-13.33a40.28,40.28,0,0,0-3.17-15.93c.45.09.93.19,1.43.33s1.16.32,1.8.55h0a15.76,15.76,0,0,1,2.64,1.1l.37.21C216,439.39,219.59,444.26,219.8,444.55Z"/><path class="cls-43" d="M181.17,458.63c.46,3,.94,4.48,1.39,8.69.28,2.66.39,4.86.43,6.31h11.4a36.44,36.44,0,0,0,.7-16.13c-.77-3.95-2.05-6.55-2.14-11.34a29.72,29.72,0,0,1,1.57-10c-.92.1-1.87.25-2.87.39a21.78,21.78,0,0,0-3.24.62h0a8.62,8.62,0,0,0-2.51,1.14,27.16,27.16,0,0,0-3,2.45C181.66,442,179.59,448.26,181.17,458.63Z"/><path class="cls-35" d="M221.65,511.26l-7.08-.13-2.34-36.87,3.24-.31S219.55,498.53,221.65,511.26Z"/><path class="cls-33" d="M219.48,466.67c-1.08-.45-1.07-2.52-.76-3.75a5.17,5.17,0,0,1,2.43-3.21c1.6-.86,2.39,0,4.83-.72s3.51-2,3.93-1.63-.14,1.54-.85,2.44c-1.34,1.7-2.63,1.22-4.33,2.83-1.37,1.29-1,2.06-2.6,3.17C221.58,466.18,220.36,467,219.48,466.67Z"/><path class="cls-33" d="M222.43,459.76s6.77,2.13,8.5,1.42,2.44-1.88,3.06-1.42-1.26,2.51-1.15,3,.74.57.27,1.29a7,7,0,0,1-1.72,2.22c-.85.58-5.24,2.07-6.92,1.84s-5.2-.51-6.46-1.78,3.1-5.83,3.1-5.83Z"/><path class="cls-44" d="M194.13,444.63l0,.24q1.18,8.37,2.43,16.66c8-.92,16-.5,23.95-1.43-.14,3.32-.34,5.29-.48,8.61-4.09,1-10.07,2.2-17.42,3.25s-11.17,2.36-14.28.07c-1.7-1.25-2.38-2.87-3.56-5.8a40.77,40.77,0,0,1-2.2-21.6C183.59,438,193.18,438,194.13,444.63Z"/></g></g></svg>