<svg xmlns="http://www.w3.org/2000/svg" xmlns:xlink="http://www.w3.org/1999/xlink" viewBox="0 0 700 600"><defs><style>.cls-1{fill:#253858;}.cls-2{fill:url(#linear-gradient);}.cls-3{isolation:isolate;}.cls-4{fill:#dfe1e5;}.cls-5{fill:url(#linear-gradient-2);}.cls-6{fill:url(#linear-gradient-3);}.cls-7{fill:#ffab00;}.cls-8{fill:#0065ff;}.cls-9{opacity:0.42;fill:url(#linear-gradient-4);}.cls-25,.cls-30,.cls-9{mix-blend-mode:multiply;}.cls-10{fill:url(#linear-gradient-5);}.cls-11{fill:#172b4d;}.cls-12{fill:url(#linear-gradient-6);}.cls-13{fill:#0052cc;}.cls-14{fill:#b5917c;}.cls-15{fill:url(#linear-gradient-7);}.cls-16{fill:#4c9aff;}.cls-17{clip-path:url(#clip-path);}.cls-18{clip-path:url(#clip-path-2);}.cls-19{fill:#9c7761;}.cls-20{fill:#b3bac5;}.cls-21{fill:#42526e;}.cls-22{opacity:0.65;fill:url(#radial-gradient);}.cls-23{fill:url(#linear-gradient-8);}.cls-24{clip-path:url(#clip-path-3);}.cls-25{opacity:0.49;fill:url(#linear-gradient-10);}.cls-26{fill:url(#linear-gradient-11);}.cls-27{fill:#cea28b;}.cls-28{fill:#57d9a3;}.cls-29{fill:url(#linear-gradient-12);}.cls-30{fill:none;stroke:#b2d4ff;stroke-miterlimit:10;stroke-width:6.01px;}.cls-31{fill:#344563;}.cls-32{fill:#79f2c0;}</style><linearGradient id="linear-gradient" x1="-5133.55" y1="427.4" x2="-5111.59" y2="405.44" gradientTransform="matrix(-1, 0, 0, 1, -4720.92, 0)" gradientUnits="userSpaceOnUse"><stop offset="0" stop-color="#0065ff"/><stop offset="1" stop-color="#4c9aff"/></linearGradient><linearGradient id="linear-gradient-2" x1="4887.26" y1="-1473.24" x2="4887.26" y2="-1626.34" gradientTransform="translate(-4402.63 1714.17) rotate(3.96)" gradientUnits="userSpaceOnUse"><stop offset="0.02" stop-color="#064"/><stop offset="0.15" stop-color="#00704a"/><stop offset="0.48" stop-color="#00875a"/><stop offset="1" stop-color="#57d9a3"/></linearGradient><linearGradient id="linear-gradient-3" x1="4646.31" y1="-3590.33" x2="4646.31" y2="-3743.43" gradientTransform="translate(-5247.72 1342.06) rotate(30.26)" gradientUnits="userSpaceOnUse"><stop offset="0.22" stop-color="#00875a"/><stop offset="1" stop-color="#57d9a3"/></linearGradient><linearGradient id="linear-gradient-4" x1="-16163.49" y1="412.71" x2="-16122.86" y2="412.71" gradientTransform="translate(16555.85)" gradientUnits="userSpaceOnUse"><stop offset="0" stop-color="#fff" stop-opacity="0"/><stop offset="0.01" stop-color="#fefefe" stop-opacity="0.02"/><stop offset="0.09" stop-color="#eceef1" stop-opacity="0.25"/><stop offset="0.19" stop-color="#dde0e5" stop-opacity="0.45"/><stop offset="0.29" stop-color="#d0d4db" stop-opacity="0.62"/><stop offset="0.39" stop-color="#c5cbd3" stop-opacity="0.76"/><stop offset="0.5" stop-color="#bdc3cd" stop-opacity="0.87"/><stop offset="0.63" stop-color="#b7bec8" stop-opacity="0.94"/><stop offset="0.78" stop-color="#b4bbc6" stop-opacity="0.99"/><stop offset="1" stop-color="#b3bac5"/></linearGradient><linearGradient id="linear-gradient-5" x1="-5109.62" y1="367.2" x2="-5104.91" y2="371.07" gradientTransform="matrix(-1, 0, 0, 1, -4720.92, 0)" gradientUnits="userSpaceOnUse"><stop offset="0" stop-color="#9c7761"/><stop offset="0.07" stop-color="#9d7862"/><stop offset="0.6" stop-color="#ae8a74"/><stop offset="1" stop-color="#b5917c"/></linearGradient><linearGradient id="linear-gradient-6" x1="-5134.85" y1="377.17" x2="-5103.21" y2="377.17" gradientTransform="matrix(-1, 0, 0, 1, -4720.92, 0)" gradientUnits="userSpaceOnUse"><stop offset="0" stop-color="#0049b0"/><stop offset="1" stop-color="#4c9aff"/></linearGradient><linearGradient id="linear-gradient-7" x1="-5153.76" y1="384.34" x2="-5124.89" y2="384.34" gradientTransform="matrix(-1, 0, 0, 1, -4720.92, 0)" gradientUnits="userSpaceOnUse"><stop offset="0" stop-color="#0052cc"/><stop offset="1" stop-color="#b2d4ff"/></linearGradient><clipPath id="clip-path"><path class="cls-1" d="M406.28,447.4a4.81,4.81,0,0,1-5.21,1.34,32.29,32.29,0,0,1-3.69,2.71,14.06,14.06,0,0,1-6.06,2.37,3.51,3.51,0,0,1-2.26-.4,3.37,3.37,0,0,1-1.26-1.28l0-1.63a35,35,0,0,0,2.93-2.44,38.08,38.08,0,0,0,3.94-4.23l.51-.95.36-3,10.17-1.26C405.87,441.53,406.08,444.47,406.28,447.4Z"/></clipPath><clipPath id="clip-path-2"><path class="cls-1" d="M385.85,436.8a4.47,4.47,0,0,1-2.78.5,4.36,4.36,0,0,1-2.05-.91,29.45,29.45,0,0,1-3.95,1.21,12.76,12.76,0,0,1-5.85.23,3.08,3.08,0,0,1-2.51-2.48l.45-1.4a34.45,34.45,0,0,0,7.83-3.64l.71-.66,1.22-2.48,9,1.95C387.24,431.68,386.55,434.24,385.85,436.8Z"/></clipPath><radialGradient id="radial-gradient" cx="-15855.63" cy="386.19" r="7.08" gradientTransform="translate(16254.69)" gradientUnits="userSpaceOnUse"><stop offset="0" stop-color="#fff" stop-opacity="0.6"/><stop offset="0.21" stop-color="#fff" stop-opacity="0.39"/><stop offset="0.41" stop-color="#fff" stop-opacity="0.22"/><stop offset="0.59" stop-color="#fff" stop-opacity="0.1"/><stop offset="0.74" stop-color="#fff" stop-opacity="0.03"/><stop offset="0.84" stop-color="#fff" stop-opacity="0"/></radialGradient><linearGradient id="linear-gradient-8" x1="-5142.13" y1="424.35" x2="-5111.25" y2="393.46" xlink:href="#linear-gradient"/><clipPath id="clip-path-3"><path class="cls-2" d="M423.53,412.29c-3.36.17-7,.21-10.85,0-2.44-.1-4.78-.27-7-.5H403.9c.29,1.82.58,4,.78,6.36.16,1.93.24,3.59.27,4.85s0,1.92,0,2.24c0,1.75.07,4.6.32,9.44a12.41,12.41,0,0,1-10.21,1.13L392,412.14l-.11-6a6.73,6.73,0,0,1,3.52-5,8,8,0,0,1,4.29-.81Z"/></clipPath><linearGradient id="linear-gradient-10" x1="-9556.61" y1="-3205.42" x2="-9537.9" y2="-3177.92" gradientTransform="matrix(-0.56, -0.83, -0.83, 0.56, -7595.65, -5701.33)" gradientUnits="userSpaceOnUse"><stop offset="0" stop-color="#2684ff"/><stop offset="1" stop-color="#b2d4ff"/></linearGradient><linearGradient id="linear-gradient-11" x1="-7015.49" y1="600" x2="-7015.49" y2="505.02" gradientTransform="matrix(-1, 0, 0, 1, -6446.91, 0)" gradientUnits="userSpaceOnUse"><stop offset="0" stop-color="#abf5d1"/><stop offset="0.02" stop-color="#a8f4cf"/><stop offset="0.33" stop-color="#7ce5b7"/><stop offset="0.57" stop-color="#61dca9"/><stop offset="0.71" stop-color="#57d9a3"/></linearGradient><linearGradient id="linear-gradient-12" x1="-154.31" y1="1118.61" x2="127.84" y2="836.46" gradientTransform="translate(256.28 -657.69)" gradientUnits="userSpaceOnUse"><stop offset="0" stop-color="#deebff"/><stop offset="0.74" stop-color="#fff"/></linearGradient></defs><title>cobra id pages_jira_right</title><g class="cls-3"><g id="Layer_2" data-name="Layer 2"><rect class="cls-4" x="298.12" y="492.52" width="76.55" height="107.48"/><path class="cls-5" d="M604.22,515.09h0A16.84,16.84,0,0,0,602.05,526l0,.23a16.88,16.88,0,0,1-4.54,14h0a16.87,16.87,0,0,0-4.66,10.57l0,.19a16.84,16.84,0,0,1-7.05,12.63l-1.1.78a16.88,16.88,0,0,0-5.9,7.53l-4,10.22-2.61-10.68a16.92,16.92,0,0,0-4.8-8.28l-1-.92a16.9,16.9,0,0,1-5.24-13.48v-.19A16.83,16.83,0,0,0,558,537.55h0A16.87,16.87,0,0,1,555.42,523l.06-.23a16.83,16.83,0,0,0-.65-11.11h0a16.88,16.88,0,0,1,1-15.06h0a16.88,16.88,0,0,0,2.17-10.92l0-.24a16.88,16.88,0,0,1,4.53-14h0a16.82,16.82,0,0,0,4.66-10.56v-.19A16.87,16.87,0,0,1,574.29,448l1.1-.78a16.94,16.94,0,0,0,5.9-7.53l4.05-10.23,2.6,10.69a16.79,16.79,0,0,0,4.81,8.27l1,.93A16.87,16.87,0,0,1,599,462.85l0,.19a17,17,0,0,0,3.16,11.11h0a16.87,16.87,0,0,1,2.56,14.53l-.06.22a16.91,16.91,0,0,0,.64,11.12h0A16.88,16.88,0,0,1,604.22,515.09Z"/><path class="cls-6" d="M630.91,535.09h0a16.86,16.86,0,0,0-6.79,8.83l-.08.23a16.86,16.86,0,0,1-10.28,10.57h0a16.91,16.91,0,0,0-8.86,7.41l-.09.17a16.87,16.87,0,0,1-11.92,8.19l-1.33.22a16.79,16.79,0,0,0-8.63,4.13l-8.16,7.37,2.4-10.73a16.91,16.91,0,0,0-.65-9.55l-.47-1.26a16.9,16.9,0,0,1,1.27-14.41l.1-.17a16.88,16.88,0,0,0,2.09-11.36h0a16.84,16.84,0,0,1,4.14-14.15l.16-.18a16.81,16.81,0,0,0,4.34-10.25h0a16.9,16.9,0,0,1,7.61-13h0a16.91,16.91,0,0,0,6.79-8.83l.07-.23a16.86,16.86,0,0,1,10.28-10.57h0a16.86,16.86,0,0,0,8.86-7.41l.1-.17a16.85,16.85,0,0,1,11.91-8.19l1.34-.22a16.86,16.86,0,0,0,8.63-4.13l8.16-7.37-2.41,10.73a16.9,16.9,0,0,0,.65,9.55l.47,1.26a16.9,16.9,0,0,1-1.27,14.41l-.1.17a16.82,16.82,0,0,0-2.08,11.36h0A16.88,16.88,0,0,1,643,511.61l-.16.18A16.87,16.87,0,0,0,638.52,522h0A16.87,16.87,0,0,1,630.91,535.09Z"/><rect class="cls-7" x="395.14" y="411.84" width="76.55" height="188.16"/><rect class="cls-8" x="489.05" y="300.15" width="76.55" height="299.85"/><ellipse class="cls-9" cx="412.67" cy="412.71" rx="20.32" ry="3.56"/><path class="cls-10" d="M383.18,370.15l.16-3.14a1.06,1.06,0,0,1,.13-.46l.82-1.42a1,1,0,0,1,1.1-.49l2.17.45a1,1,0,0,1,.79.76l.85,3.48a1.07,1.07,0,0,1-.06.66l-.5,1.12.64,1.4-1.72,1.07-3.1-1.2-1-1.51h0A1,1,0,0,1,383.18,370.15Z"/><path class="cls-11" d="M414.24,342.84c-4.58,6.89,3.77,23.85,14.93,26.19,3.57.75,9.3.39,11.17-2.89,1.18-2.09.78-5.29-.41-7.44-1.39-2.49-3.4-2.74-4-5.36-.31-1.5.19-2.14-.46-3.57s-1.38-1.49-2.5-2.83c-1.66-2-1.16-3.12-2.29-4.77-1.91-2.81-5.84-3.22-6.65-3.31C420.41,338.48,416.11,340,414.24,342.84Z"/><path class="cls-12" d="M413,367.69q-2.55,3.27-5.14,6.92c-1.95,2.74-3.76,5.44-5.43,8.05q-2.37-2.36-4.76-4.86c-2.87-3-4.14-3.93-6.7-6.86l-3.36,2.64c2.2,3.22,3.19,4.53,5.89,8,2,2.58,4,5,6,7.28a3.61,3.61,0,0,0,4.36.86q1.85-.93,3.81-2.07a68.85,68.85,0,0,0,6.58-4.39s7.14-19,4.36-19C414.87,364.26,413,367.69,413,367.69Z"/><path class="cls-13" d="M413.49,376.06c.74-2.72,2.48-3.86,4-7.91a23.2,23.2,0,0,0,1.08-3.89l10.84-.58a5.53,5.53,0,0,0,1.87,1.94c1.81,1.1,3.38.56,5.7,1.09a10.53,10.53,0,0,1,4.35,2.18l-1.89,32.33H412.81c2.8-8.49,2.38-14.24,1.39-18C413.64,381.13,412.71,378.89,413.49,376.06Z"/><path class="cls-14" d="M416.42,392.75c-.25.67,1.89,2.35-2.26.55a3.38,3.38,0,0,1-2-1.4c-.65-1.11.19-2-.55-2.93-.4-.51-.86-.53-1.11-1.19-.18-.45-.19-1,0-1.16s.6.49,1.65,1.36,1.2.67,2,1.43c.33.32.49.54,1.18,1.22a5.79,5.79,0,0,1,.51.53C416.08,391.49,416.63,392.21,416.42,392.75Z"/><path class="cls-15" d="M435.85,368.57c-2.45,1.9-1.42,7.57-.38,16.85.38,3.46.64,6.27.8,8-6.76-1.08-13.27-1-20-2.12a12,12,0,0,0-.89,3.72c7.85,1.93,15,4.53,22.45,5.87a4.74,4.74,0,0,0,5.52-4c.51-3.57.76-6.68.88-9.23h0c.06-16-2.07-18.15-2.88-18.81a4.84,4.84,0,0,0-3.27-1.2A4.47,4.47,0,0,0,435.85,368.57Z"/><path class="cls-11" d="M419.73,368.47h5.33V355.06H414.52c-.81.76-4.09,4-3.86,8.6.06,1.17.18,3.54,2,4.93S417.23,369.92,419.73,368.47Z"/><path class="cls-14" d="M413.65,390.93a8.55,8.55,0,0,1-2.25-.68c-.59-.27-1-.56-1.42-.68a.81.81,0,0,0-.65,0,.93.93,0,0,0-.46.62c-.09.47.32.63.45,1.34s-.11.75.1,1,.51.23.75.58,0,.55.21.84c.31.52,1.36.5,1.74.5a8,8,0,0,1,3.88,1.08,4,4,0,0,0,0-1.57,4.55,4.55,0,0,0-2-2.74Z"/><rect class="cls-16" x="395.92" y="432.72" width="8.46" height="11.12" transform="translate(848.44 827.18) rotate(173.34)"/><rect class="cls-16" x="380.62" y="421.52" width="7.63" height="10.03" transform="translate(597.33 959.82) rotate(-159.73)"/><path class="cls-1" d="M406.28,447.4a4.81,4.81,0,0,1-5.21,1.34,32.29,32.29,0,0,1-3.69,2.71,14.06,14.06,0,0,1-6.06,2.37,3.51,3.51,0,0,1-2.26-.4,3.37,3.37,0,0,1-1.26-1.28l0-1.63a35,35,0,0,0,2.93-2.44,38.08,38.08,0,0,0,3.94-4.23l.51-.95.36-3,10.17-1.26C405.87,441.53,406.08,444.47,406.28,447.4Z"/><g class="cls-17"><path class="cls-1" d="M406.28,445.85a4.81,4.81,0,0,1-5.21,1.34,30.85,30.85,0,0,1-3.69,2.7,14,14,0,0,1-6.06,2.38,3.39,3.39,0,0,1-3.9-2.77s6.33-5.56,7.21-7.21l.51-1,.36-3L405.67,437C405.87,440,406.08,442.91,406.28,445.85Z"/><path class="cls-1" d="M395.14,442.89q-4,4.22-3.63,4.59t5.84-3.75c0-2,0-4.06.08-6.1l-2.29,0Z"/><circle class="cls-1" cx="401.91" cy="439.34" r="2.96"/></g><path class="cls-1" d="M385.85,436.8a4.47,4.47,0,0,1-2.78.5,4.36,4.36,0,0,1-2.05-.91,29.45,29.45,0,0,1-3.95,1.21,12.76,12.76,0,0,1-5.85.23,3.08,3.08,0,0,1-2.51-2.48l.45-1.4a34.45,34.45,0,0,0,7.83-3.64l.71-.66,1.22-2.48,9,1.95C387.24,431.68,386.55,434.24,385.85,436.8Z"/><g class="cls-18"><path class="cls-1" d="M386.31,435.48a4.45,4.45,0,0,1-2.78.5,4.36,4.36,0,0,1-2-.91,29.45,29.45,0,0,1-4,1.21,12.54,12.54,0,0,1-5.85.22,3,3,0,0,1-1.81-1,3.06,3.06,0,0,1-.7-2.5s7-2.85,8.28-4l.72-.66c.4-.83.8-1.66,1.21-2.48l9,1.95C387.7,430.36,387,432.92,386.31,435.48Z"/><path class="cls-1" d="M377.7,429.65q-4.62,2.42-4.44,2.83t6.08-1.46l1.87-5.16-1.94-.71Z"/><circle class="cls-1" cx="384.52" cy="428.64" r="2.67"/></g><path class="cls-19" d="M419.51,364.77a13.25,13.25,0,0,0,9.61-.32,10.44,10.44,0,0,1-1.2-2.71,9.82,9.82,0,0,1-.33-3.55l-8.38,1.12Z"/><path class="cls-14" d="M415.3,346.41a28.7,28.7,0,0,0-.65,2.91,27.39,27.39,0,0,0-.38,4c-.09.21-.25.58-.49,1-.73,1.35-1.53,2.19-1.27,2.48,0,0,1,.33,1.22.45.38.25.43,3.26,1.22,4.42,1.59,2.37,9.75,2.23,12-1.69a5.11,5.11,0,0,0,.6-3.09,3.47,3.47,0,0,1-.44-.13,3.63,3.63,0,0,1-1.87-1.5,6.94,6.94,0,0,0-1.13-2.79,8.58,8.58,0,0,0-5.39-3.32,8,8,0,0,1-1.65-.36,2.7,2.7,0,0,1-.48-.21A2.84,2.84,0,0,1,415.3,346.41Z"/><path class="cls-14" d="M406.58,389.19c.71-.59,3.52.38,3.52.38l-.12,1.57.7,3.14s-3.16-1-3.85-1.73a2.34,2.34,0,0,1-.28-.82s-.48-.35-.6-.47c-.31-.32-.54-1.19-.25-1.52.12-.12.67,0,.67,0A1.61,1.61,0,0,1,406.58,389.19Z"/><path class="cls-1" d="M385.69,394.57H422a0,0,0,0,1,0,0v0a1,1,0,0,1-1,1h-34.2a1,1,0,0,1-1-1v0a0,0,0,0,1,0,0Z"/><rect class="cls-20" x="416.68" y="389.28" width="0.38" height="10.2" transform="translate(811.25 -22.5) rotate(90)"/><path class="cls-1" d="M412.21,395.61H387.36a1,1,0,0,1-1-1V377.78a1,1,0,0,1,1-1h24.93a1,1,0,0,1,1,1v16.71A1.12,1.12,0,0,1,412.21,395.61Z"/><path class="cls-1" d="M412.19,395.61H387.34a1,1,0,0,1-1-1V377.78a1,1,0,0,1,1-1h24.93a1,1,0,0,1,1,1v16.71A1.12,1.12,0,0,1,412.19,395.61Z"/><path class="cls-1" d="M412.17,395.61H387.33a1,1,0,0,1-1-1V377.78a1,1,0,0,1,1-1H412.3a1,1,0,0,1,1,1v16.71A1.13,1.13,0,0,1,412.17,395.61Z"/><path class="cls-1" d="M412.16,395.61H387.31a1,1,0,0,1-1-1V377.78a1,1,0,0,1,1-1h24.93a1,1,0,0,1,1,1v16.71A1.12,1.12,0,0,1,412.16,395.61Z"/><path class="cls-1" d="M412.14,395.61H387.3a1,1,0,0,1-1-1V377.78a1,1,0,0,1,1-1h24.92a1,1,0,0,1,1,1v16.71A1.12,1.12,0,0,1,412.14,395.61Z"/><path class="cls-1" d="M412.13,395.61H387.28a1,1,0,0,1-1-1V377.78a1,1,0,0,1,1-1h24.93a1,1,0,0,1,1,1v16.71A1.12,1.12,0,0,1,412.13,395.61Z"/><path class="cls-1" d="M412.11,395.61H387.26a1,1,0,0,1-1-1V377.78a1,1,0,0,1,1-1h24.93a1,1,0,0,1,1,1v16.71A1.12,1.12,0,0,1,412.11,395.61Z"/><path class="cls-1" d="M412.09,395.61H387.25a1,1,0,0,1-1-1V377.78a1,1,0,0,1,1-1h24.92a1,1,0,0,1,1,1v16.71A1.12,1.12,0,0,1,412.09,395.61Z"/><path class="cls-1" d="M412.08,395.61H387.23a1,1,0,0,1-1-1V377.78a1,1,0,0,1,1-1H412.2a1,1,0,0,1,1,1v16.71A1.12,1.12,0,0,1,412.08,395.61Z"/><path class="cls-1" d="M412.06,395.61H387.22a1,1,0,0,1-1-1V377.78a1,1,0,0,1,1-1h24.92a1,1,0,0,1,1,1v16.71A1.12,1.12,0,0,1,412.06,395.61Z"/><path class="cls-1" d="M412.05,395.61H387.2a1,1,0,0,1-1-1V377.78a1,1,0,0,1,1-1h24.93a1,1,0,0,1,1,1v16.71A1.12,1.12,0,0,1,412.05,395.61Z"/><path class="cls-1" d="M412,395.61H387.18a1,1,0,0,1-1-1V377.78a1,1,0,0,1,1-1h24.93a1,1,0,0,1,1,1v16.71A1.12,1.12,0,0,1,412,395.61Z"/><path class="cls-1" d="M412,395.61H387.17a1,1,0,0,1-1-1V377.78a1,1,0,0,1,1-1h24.92a1,1,0,0,1,1,1v16.71A1.12,1.12,0,0,1,412,395.61Z"/><path class="cls-1" d="M412,395.61H387.15a1,1,0,0,1-1-1V377.78a1,1,0,0,1,1-1h24.93a1,1,0,0,1,1,1v16.71A1.12,1.12,0,0,1,412,395.61Z"/><path class="cls-1" d="M412,395.61H387.14a1,1,0,0,1-1-1V377.78a1,1,0,0,1,1-1H412.1a1,1,0,0,1,1,1v16.71A1.12,1.12,0,0,1,412,395.61Z"/><path class="cls-1" d="M412,395.61H387.12a1,1,0,0,1-1-1V377.78a1,1,0,0,1,1-1h24.93a1,1,0,0,1,1,1v16.71A1.12,1.12,0,0,1,412,395.61Z"/><path class="cls-1" d="M412,395.61H387.1a1,1,0,0,1-1-1V377.78a1,1,0,0,1,1-1h24.93a1,1,0,0,1,1,1v16.71A1.12,1.12,0,0,1,412,395.61Z"/><path class="cls-1" d="M411.93,395.61H387.09a1,1,0,0,1-1-1V377.78a1,1,0,0,1,1-1h24.92a1,1,0,0,1,1,1v16.71A1.12,1.12,0,0,1,411.93,395.61Z"/><path class="cls-1" d="M411.92,395.61H387.07a1,1,0,0,1-1-1V377.78a1,1,0,0,1,1-1H412a1,1,0,0,1,1,1v16.71A1.12,1.12,0,0,1,411.92,395.61Z"/><path class="cls-1" d="M411.9,395.61H387.06a1,1,0,0,1-1-1V377.78a1,1,0,0,1,1-1H412a1,1,0,0,1,1,1v16.71A1.12,1.12,0,0,1,411.9,395.61Z"/><path class="cls-1" d="M411.89,395.61H387a1,1,0,0,1-1-1V377.78a1,1,0,0,1,1-1H412a1,1,0,0,1,1,1v16.71A1.12,1.12,0,0,1,411.89,395.61Z"/><path class="cls-1" d="M411.87,395.61H387a1,1,0,0,1-1-1V377.78a1,1,0,0,1,1-1H412a1,1,0,0,1,1,1v16.71A1.12,1.12,0,0,1,411.87,395.61Z"/><path class="cls-1" d="M411.85,395.61H387a1,1,0,0,1-1-1V377.78a1,1,0,0,1,1-1H412a1,1,0,0,1,1,1v16.71A1.12,1.12,0,0,1,411.85,395.61Z"/><path class="cls-1" d="M411.84,395.61H387a1,1,0,0,1-1-1V377.78a1,1,0,0,1,1-1H412a1,1,0,0,1,1,1v16.71A1.12,1.12,0,0,1,411.84,395.61Z"/><path class="cls-1" d="M411.82,395.61H387a1,1,0,0,1-1-1V377.78a1,1,0,0,1,1-1h24.93a1,1,0,0,1,1,1v16.71A1.12,1.12,0,0,1,411.82,395.61Z"/><path class="cls-1" d="M411.81,395.61H387a1,1,0,0,1-1-1V377.78a1,1,0,0,1,1-1h24.93a1,1,0,0,1,1,1v16.71A1.12,1.12,0,0,1,411.81,395.61Z"/><path class="cls-1" d="M411.79,395.61H386.94a1,1,0,0,1-1-1V377.78a1,1,0,0,1,1-1h24.93a1,1,0,0,1,1,1v16.71A1.12,1.12,0,0,1,411.79,395.61Z"/><path class="cls-1" d="M411.77,395.61H386.93a1,1,0,0,1-1-1V377.78a1,1,0,0,1,1-1h24.92a1,1,0,0,1,1,1v16.71A1.12,1.12,0,0,1,411.77,395.61Z"/><path class="cls-1" d="M411.76,395.61H386.91a1,1,0,0,1-1-1V377.78a1,1,0,0,1,1-1h24.93a1,1,0,0,1,1,1v16.71A1.12,1.12,0,0,1,411.76,395.61Z"/><path class="cls-1" d="M411.74,395.61H386.9a1,1,0,0,1-1-1V377.78a1,1,0,0,1,1-1h24.93a1,1,0,0,1,1,1v16.71A1.12,1.12,0,0,1,411.74,395.61Z"/><path class="cls-1" d="M411.73,395.61H386.88a1,1,0,0,1-1-1V377.78a1,1,0,0,1,1-1h24.93a1,1,0,0,1,1,1v16.71A1.12,1.12,0,0,1,411.73,395.61Z"/><path class="cls-1" d="M411.71,395.61H386.86a1,1,0,0,1-1-1V377.78a1,1,0,0,1,1-1h24.93a1,1,0,0,1,1,1v16.71A1.12,1.12,0,0,1,411.71,395.61Z"/><path class="cls-1" d="M411.69,395.61H386.85a1,1,0,0,1-1-1V377.78a1,1,0,0,1,1-1h24.92a1,1,0,0,1,1,1v16.71A1.12,1.12,0,0,1,411.69,395.61Z"/><path class="cls-1" d="M411.68,395.61H386.83a1,1,0,0,1-1-1V377.78a1,1,0,0,1,1-1H411.8a1,1,0,0,1,1,1v16.71A1.12,1.12,0,0,1,411.68,395.61Z"/><path class="cls-1" d="M411.66,395.61H386.82a1,1,0,0,1-1-1V377.78a1,1,0,0,1,1-1h24.93a1,1,0,0,1,1,1v16.71A1.12,1.12,0,0,1,411.66,395.61Z"/><path class="cls-1" d="M411.65,395.61H386.8a1,1,0,0,1-1-1V377.78a1,1,0,0,1,1-1h24.93a1,1,0,0,1,1,1v16.71A1.12,1.12,0,0,1,411.65,395.61Z"/><path class="cls-1" d="M411.63,395.61H386.78a1,1,0,0,1-1-1V377.78a1,1,0,0,1,1-1h24.93a1,1,0,0,1,1,1v16.71A1.12,1.12,0,0,1,411.63,395.61Z"/><path class="cls-1" d="M411.61,395.61H386.77a1,1,0,0,1-1-1V377.78a1,1,0,0,1,1-1h24.92a1,1,0,0,1,1,1v16.71A1.12,1.12,0,0,1,411.61,395.61Z"/><path class="cls-1" d="M411.6,395.61H386.75a1,1,0,0,1-1-1V377.78a1,1,0,0,1,1-1h24.93a1,1,0,0,1,1,1v16.71A1.12,1.12,0,0,1,411.6,395.61Z"/><path class="cls-1" d="M411.58,395.61H386.74a1,1,0,0,1-1-1V377.78a1,1,0,0,1,1-1H411.7a1,1,0,0,1,1,1v16.71A1.12,1.12,0,0,1,411.58,395.61Z"/><path class="cls-1" d="M411.57,395.61H386.72a1,1,0,0,1-1-1V377.78a1,1,0,0,1,1-1h24.93a1,1,0,0,1,1,1v16.71A1.12,1.12,0,0,1,411.57,395.61Z"/><path class="cls-1" d="M411.55,395.61H386.7a1,1,0,0,1-1-1V377.78a1,1,0,0,1,1-1h24.93a1,1,0,0,1,1,1v16.71A1.12,1.12,0,0,1,411.55,395.61Z"/><path class="cls-1" d="M411.53,395.61H386.69a1,1,0,0,1-1-1V377.78a1,1,0,0,1,1-1h24.92a1,1,0,0,1,1,1v16.71A1.12,1.12,0,0,1,411.53,395.61Z"/><path class="cls-1" d="M411.52,395.61H386.67a1,1,0,0,1-1-1V377.78a1,1,0,0,1,1-1h24.93a1,1,0,0,1,1,1v16.71A1.12,1.12,0,0,1,411.52,395.61Z"/><path class="cls-1" d="M411.5,395.61H386.66a1,1,0,0,1-1-1V377.78a1,1,0,0,1,1-1h24.93a1,1,0,0,1,1,1v16.71A1.12,1.12,0,0,1,411.5,395.61Z"/><path class="cls-1" d="M411.49,395.61H386.64a1,1,0,0,1-1-1V377.78a1,1,0,0,1,1-1h24.93a1,1,0,0,1,1,1v16.71A1.12,1.12,0,0,1,411.49,395.61Z"/><path class="cls-1" d="M411.47,395.61H386.62a1,1,0,0,1-1-1V377.78a1,1,0,0,1,1-1h24.93a1,1,0,0,1,1,1v16.71A1.12,1.12,0,0,1,411.47,395.61Z"/><path class="cls-1" d="M411.45,395.61H386.61a1,1,0,0,1-1-1V377.78a1,1,0,0,1,1-1h24.92a1,1,0,0,1,1,1v16.71A1.12,1.12,0,0,1,411.45,395.61Z"/><path class="cls-1" d="M411.44,395.61H386.59a1,1,0,0,1-1-1V377.78a1,1,0,0,1,1-1h24.93a1,1,0,0,1,1,1v16.71A1.12,1.12,0,0,1,411.44,395.61Z"/><path class="cls-1" d="M411.42,395.61H386.58a1,1,0,0,1-1-1V377.78a1,1,0,0,1,1-1h24.93a1,1,0,0,1,1,1v16.71A1.12,1.12,0,0,1,411.42,395.61Z"/><path class="cls-1" d="M411.41,395.61H386.56a1,1,0,0,1-1-1V377.78a1,1,0,0,1,1-1h24.93a1,1,0,0,1,1,1v16.71A1.12,1.12,0,0,1,411.41,395.61Z"/><path class="cls-21" d="M411.41,395.61H386.56a1,1,0,0,1-1-1V377.78a1,1,0,0,1,1-1h24.93a1,1,0,0,1,1,1v16.71A1.12,1.12,0,0,1,411.41,395.61Z"/><circle class="cls-22" cx="399.06" cy="386.19" r="7.08"/><polygon class="cls-4" points="399.14 388.59 396.71 386.17 399.14 383.74 399.14 388.59"/><polygon class="cls-4" points="399.14 383.74 401.57 386.17 399.14 388.59 399.14 383.74"/><path class="cls-23" d="M437.22,408.22a12.32,12.32,0,0,1-13.69,4.07l-27.77-9.48c-.3,2.29-.71,4.77-1.27,7.4-.62,2.87-1.29,5.19-2.19,8.31l-2.5,8.7q-3.15-.68-6.48-1.53c-1-.26-1.95-.52-2.9-.79,1.5-7.47,2.76-13.75,4-20.17.56-2.85,1.13-5.77,3.39-8.64a17.54,17.54,0,0,1,9.05-5.75l42.54,10.88v.59A10.36,10.36,0,0,1,437.22,408.22Z"/><path class="cls-11" d="M429.78,367.93h5.32V354.52l-11-2a6.51,6.51,0,0,1,.5,3.24c-.39,3.41-3.58,4.22-3.94,7.41a5.6,5.6,0,0,0,2,4.93C424.48,369.43,427.28,369.38,429.78,367.93Z"/><path class="cls-2" d="M423.53,412.29c-3.36.17-7,.21-10.85,0-2.44-.1-4.78-.27-7-.5H403.9c.29,1.82.58,4,.78,6.36.16,1.93.24,3.59.27,4.85s0,1.92,0,2.24c0,1.75.07,4.6.32,9.44a12.41,12.41,0,0,1-10.21,1.13L392,412.14l-.11-6a6.73,6.73,0,0,1,3.52-5,8,8,0,0,1,4.29-.81Z"/><g class="cls-24"><path class="cls-25" d="M430.81,417.65c.44-.85-12.81-4.43-17.76-16.33-2.25-5.43-1-8.39-4-14.62a33.6,33.6,0,0,0-10.19-12.27c-.78,2.82-3.54,14.11,2.5,25.38C410.21,416.25,430.29,418.67,430.81,417.65Z"/></g><rect class="cls-11" x="413.6" y="344.66" width="11.46" height="5.69" transform="translate(838.65 695.01) rotate(-180)"/><path class="cls-14" d="M390.66,371.64l.31-2.59-.74-2a5.46,5.46,0,0,1-.32-1.74l-.08-2.84a.63.63,0,0,0-.53-.67h0a.64.64,0,0,0-.72.52l-1.17,4.54v2.79l.15,4Z"/><path class="cls-26" d="M437.16,600H700V505a101.14,101.14,0,0,0-38,6.56c-30.21,11.65-31.13,30.57-57.3,38.85-25.06,7.94-32.21-6.73-57.8,3.6-18.9,7.63-18.9,17.21-37.62,21.56-17.65,4.11-24.94-2.72-40.93,1.7C453.2,581.5,443.06,592.24,437.16,600Z"/><path class="cls-27" d="M147,405a24.91,24.91,0,0,1-2.81-2.25,26.82,26.82,0,0,1-5.06-6.34,1.93,1.93,0,0,1,.36-2.74,1.72,1.72,0,0,1,1.75.28,3.22,3.22,0,0,1,1-.1c1.88.13,3,2,3.16,2.31l1.4,1.07.18-1.56a1.91,1.91,0,0,1,.78-1.31,1.81,1.81,0,0,1,1.23-.29l-.15,2.36,1.26,5.83Z"/><path class="cls-27" d="M203.93,436.23l-26.16-15L149.93,401,146.6,405a285.33,285.33,0,0,0,53.34,43.31Z"/><path class="cls-28" d="M196.92,451.41s1.6-4.42-8.11-9.18l5.73-11.38s7.12,3.93,8.36,4a3.89,3.89,0,0,0,2.12-.53v1.78l-4.69,13.13Z"/><rect class="cls-29" x="68.79" y="328.67" width="229.16" height="101.7" rx="4.51" transform="translate(-85.5 54.91) rotate(-13.85)"/><circle class="cls-4" cx="265.3" cy="384" r="13.82"/><line class="cls-30" x1="83.62" y1="373.06" x2="268.69" y2="327.44"/><line class="cls-30" x1="89.45" y1="396.75" x2="216.17" y2="365.52"/><rect class="cls-28" x="96.16" y="408.47" width="27.63" height="27.63" rx="4.51" transform="translate(-97.87 38.59) rotate(-13.85)"/><path class="cls-31" d="M265.52,583.45a17.76,17.76,0,0,1,4.32,2.12,17,17,0,0,1,3.57,3.24c-.25.69-.54,1.4-.87,2.12a28.72,28.72,0,0,1-6.55,9l-8.59.06a2.05,2.05,0,0,1,0-.7c.36-2.21,4.26-3,4.49-3.08a10.94,10.94,0,0,0,1-4.68,10.8,10.8,0,0,0-1.05-4.6Z"/><path class="cls-11" d="M227,471c-5.73-4.79-19-2.55-23,4.27-4.19,7.11,1.85,18.95,9.05,32.85,2,3.84,2.23,8.47,15.92,30.3,7.61,12.11,10.12,16.26,14.93,24.08,6.89,11.19,12.36,20.83,15.73,26.79,2.46-1.15,6.59-3.66,9.05-4.81-3.59-8.37-6.22-15.27-7.94-20-3.63-9.93-5.13-15.29-9-23.77-2.57-5.59-5-10-6.61-12.75q-2.31-6.79-4.55-13.79-4.36-13.62-8.09-26.75a22.28,22.28,0,0,0-1.06-8.93C230.9,477.12,229.59,473.21,227,471Z"/><path class="cls-31" d="M212.77,589.48c.33,1.19.64,2.47.9,3.85a45.84,45.84,0,0,1,.71,5.17A1.4,1.4,0,0,1,213,600l-17.74-.08a3.21,3.21,0,0,1,.58-2.35c.72-.84,1.78-.78,3-1a13.68,13.68,0,0,0,6.59-3.46,10.71,10.71,0,0,0,2.47-3.81Z"/><path class="cls-31" d="M216.27,463.79c-.56-.15-6.66-1.66-11.56,1.7-4.34,3-6.38,8.82-6.09,30.69.15,10.89.83,22.69,2.73,40.37,1.44,13.31,2.1,16.43,3.17,28.25,1,11,1.47,20,1.73,26,2.94.17,8.61.34,11.56.52,1.94-11,2.14-19.83,3-26.95.87-7.33-.44-12.23-1.06-17.69-.74-6.44-.74-12.94-.93-13.57-.42-1.4,7.09-26.71,9.34-34.44,3.78-13,.67-17.77-.27-22C226.72,471.43,222.66,465.46,216.27,463.79Z"/><path class="cls-32" d="M232,479.88A30.53,30.53,0,0,1,212,486.19,29.87,29.87,0,0,1,197,481.08c-.09-1.75-.2-4.11-.28-6.91-.11-4.17-.09-7.27-.07-10.79.05-7.83.25-6.25.21-11,0,0,0-2,.46-9.84a12.21,12.21,0,0,1,1.52-5.08l.18-.27c.42-.57,2.34-2.93,9.52-3.3a38.19,38.19,0,0,1,19.3,4.6,70.72,70.72,0,0,0-1.22,11.56,46.72,46.72,0,0,0,1.2,13.68c.66,2.53,1,2.86,2,6.49A82.25,82.25,0,0,1,232,479.88Z"/><path class="cls-27" d="M197.87,422.62a2.9,2.9,0,0,0,.7.63,8.34,8.34,0,0,0,.89.59c0,.6,0,1.24.06,1.89a30.83,30.83,0,0,0,.42,3.5,25.08,25.08,0,0,0,3.64.66,18.6,18.6,0,0,0,6.64-.26,12,12,0,0,0,4.23-1.68c3-2.08,5.59-7.1,3.61-11.88-2.05-4.95-8.62-7.07-12.69-5.3a8.3,8.3,0,0,0-4.28,3.94c-.48,1.1-.22,1.23-1,3.11-.19.45-.43,1-.82,1.75C198.32,421.32,197.57,422,197.87,422.62Z"/><path class="cls-27" d="M215,424.82a10.51,10.51,0,0,0-1.42,4.73,10.65,10.65,0,0,0,1,5.15c-1.65,1.09-3.33,2.23-5,3.42q-3.66,2.58-7,5.13l2.94-7.52a24.74,24.74,0,0,0-.1-2.65,23.78,23.78,0,0,0-.5-3.22Z"/><path class="cls-27" d="M229.9,382.2l1.84-7.11a26.47,26.47,0,0,0-.39-4.15c-.18-1.05-.4-1.9-1.09-2.28a1.73,1.73,0,0,0-.78-.19,1.12,1.12,0,0,0-.27-1.12,1.07,1.07,0,0,0-1.12-.25,1,1,0,0,0-.62.93,1.09,1.09,0,0,0-.77,0c-1,.34-1.37,2.43-1,5.2-.81-1.28-1.87-1.93-2.57-1.67a1,1,0,0,0-.49.4l1.73,3.32a7.82,7.82,0,0,0,.33,2.34,8.24,8.24,0,0,0,2.06,3.42Z"/><path class="cls-27" d="M215,443.41l6.72-29.4q2-17.08,4-34.18c1.72.08,3.1-.37,4.82-.3a290.74,290.74,0,0,1,.32,33.44,284.49,284.49,0,0,1-4.35,35.66Z"/><path class="cls-1" d="M209.06,420.77s1.27-2,2.53-1.78a1.66,1.66,0,0,1,.4,2.41,2.74,2.74,0,0,0,0,3.73,16.26,16.26,0,0,1,1.68,3.72s1.1-.89,2.29-2a9.3,9.3,0,0,0,3.09-6.22c.25-3.35-.48-8-5.62-10.51s-10.65,1.66-11,2.15a1.41,1.41,0,0,1-2.17.37c-1-.84-1.94-.08-1.64.77s1.61,4.09,4.65,3.92a5.09,5.09,0,0,1,4.15,2.56C207.74,420.67,209.06,420.77,209.06,420.77Z"/><path class="cls-32" d="M215.44,434.27s1.24.65,3-5.82a68.24,68.24,0,0,1,13,6.05s-4.7,12.51-4.74,15.55-13.74-4.55-13.74-4.55Z"/></g></g></svg>